<svg xmlns="http://www.w3.org/2000/svg" height="20" width="115" viewBox="0 0 115 20"><path fill="rgba(255,85,1,0.999)" d="M20.956 7.196H14.39L12.394 1.24a.704.704 0 0 0-.679-.473.704.704 0 0 0-.678.473L9.04 7.196H2.43a.716.716 0 0 0-.714.714c0 .04.005.085.014.12.009.157.08.33.299.505l5.397 3.803-2.071 6.023c-.103.29 0 .616.245.803.13.094.25.174.402.174a.872.872 0 0 0 .446-.16l5.268-3.755 5.268 3.755c.125.089.3.16.446.16.152 0 .273-.075.398-.174a.708.708 0 0 0 .245-.803l-2.071-6.023L21.354 8.5l.129-.111c.116-.125.232-.295.232-.478 0-.393-.366-.714-.759-.714zm22.897 0h-6.566L35.29 1.24a.704.704 0 0 0-.679-.473.704.704 0 0 0-.678.473l-1.996 5.956h-6.611a.716.716 0 0 0-.715.714c0 .04.005.085.014.12.01.157.08.33.299.505l5.397 3.803-2.071 6.023c-.103.29 0 .616.245.803.13.094.25.174.402.174a.876.876 0 0 0 .447-.16l5.267-3.755 5.268 3.755c.125.089.3.16.447.16.151 0 .272-.075.397-.174a.708.708 0 0 0 .246-.803l-2.072-6.023L44.251 8.5l.13-.111c.115-.125.231-.295.231-.478 0-.393-.366-.714-.759-.714zm22.897 0h-6.566L58.188 1.24a.704.704 0 0 0-.678-.473.704.704 0 0 0-.679.473l-1.995 5.956h-6.612a.716.716 0 0 0-.714.714c0 .04.004.085.013.12.01.157.08.33.3.505l5.396 3.803-2.071 6.023c-.103.29 0 .616.246.803.129.094.25.174.401.174a.872.872 0 0 0 .447-.16l5.268-3.755 5.267 3.755c.125.089.3.16.447.16.152 0 .272-.075.397-.174a.708.708 0 0 0 .246-.803l-2.072-6.023L67.148 8.5l.13-.111c.116-.125.232-.295.232-.478 0-.393-.366-.714-.76-.714zm22.898 0H83.08L81.085 1.24a.704.704 0 0 0-.678-.473.704.704 0 0 0-.679.473l-1.995 5.956H71.12a.716.716 0 0 0-.714.714c0 .04.005.085.013.12.01.157.08.33.3.505l5.397 3.803-2.072 6.023c-.102.29 0 .616.246.803.13.094.25.174.402.174a.872.872 0 0 0 .446-.16l5.268-3.755 5.268 3.755c.125.089.299.16.446.16.152 0 .272-.075.397-.174a.708.708 0 0 0 .246-.803l-2.071-6.023L90.045 8.5l.13-.111c.116-.125.232-.295.232-.478 0-.393-.366-.714-.76-.714zm22.897 0h-6.567l-1.995-5.956a.704.704 0 0 0-.679-.473.704.704 0 0 0-.679.473l-1.995 5.956h-6.612a.716.716 0 0 0-.714.714c0 .04.005.085.013.12.01.157.08.33.3.505l5.397 3.803-2.072 6.023c-.102.29 0 .616.246.803.13.094.25.174.402.174a.872.872 0 0 0 .446-.16l5.268-3.755 5.268 3.755c.125.089.299.16.446.16.152 0 .273-.075.398-.174a.708.708 0 0 0 .245-.803l-2.071-6.023 5.352-3.839.13-.111c.116-.125.232-.295.232-.478 0-.393-.366-.714-.759-.714z"/></svg>